<svg id="eGjs6wFbh3x1" xmlns="http://www.w3.org/2000/svg" xmlns:xlink="http://www.w3.org/1999/xlink" viewBox="0 0 100 100" shape-rendering="geometricPrecision" text-rendering="geometricPrecision"><path d="M50,31.98318c7.88594,0,14.69451,7.98624,17.87476,19.54214l6.04265,2.29092l6.33726,12.42844h-60.50934l6.33726-12.42844l6.04264-2.29092c3.18025-11.5559,9.98882-19.54214,17.87476-19.54214h.00001Z" fill="none" stroke="#fff" stroke-width="3"/><path d="M17.52432,25.6515c2.85463,0,5.16876,2.83479,5.16876,6.33167h-10.33752c0-3.49689,2.31413-6.33167,5.16876-6.33167Z" transform="translate(32.47568 0.000006)" fill="none" stroke="#fff" stroke-width="3"/><path d="M15.10289,86.24468c-5.52285,0-10-4.47715-10-10h20c0,5.52285-4.47715,10-10,10Z" transform="matrix(1 0 0 0.538607 34.89711 25.178762)" fill="none" stroke="#fff" stroke-width="3"/></svg>